<svg version="1.1" id="Layer_1" xmlns="http://www.w3.org/2000/svg" xmlns:xlink="http://www.w3.org/1999/xlink" x="0px" y="0px"
	 width="100%" viewBox="0 0 1024 608" enable-background="new 0 0 1024 608" xml:space="preserve">
<path fill="#000000" opacity="1.000000" stroke="none" 
	d="
M608.049561,439.190979 
	C599.077576,439.326294 590.580322,440.338837 582.250305,441.513855 
	C571.872131,442.977692 562.843750,439.574158 553.585022,436.591248 
	C548.906128,435.083832 544.475037,433.929474 539.471985,434.516510 
	C532.486389,435.336121 525.913147,433.050293 519.698792,430.177216 
	C513.042969,427.099976 506.247803,425.604706 498.907440,425.840729 
	C490.759735,426.102692 482.623322,425.841339 474.456696,425.245667 
	C463.234802,424.427094 453.158875,420.881866 443.155762,415.951569 
	C428.555817,408.755615 418.985229,397.360077 412.451141,382.881470 
	C406.764374,370.280273 395.736694,362.420166 385.996429,353.437317 
	C385.172943,352.677887 383.999573,352.082031 382.900146,351.870331 
	C369.092712,349.211517 357.284760,341.670563 344.604401,336.270233 
	C332.985107,331.321808 322.259430,324.526489 310.402100,320.001770 
	C304.664734,317.812378 300.617432,313.037354 297.868561,307.549530 
	C293.053436,297.936646 289.598175,287.839752 289.664642,276.952362 
	C289.706329,270.124146 292.129791,263.492279 296.117035,258.318390 
	C306.411224,244.960602 318.363678,233.938995 337.199158,234.965500 
	C345.164764,235.399597 353.278290,234.909775 360.522522,230.903152 
	C366.646088,227.516327 372.061890,223.077682 377.113373,218.242065 
	C384.085846,211.567581 390.601044,204.387421 398.916504,199.244156 
	C404.673492,195.683365 406.518768,189.731689 407.826935,183.656586 
	C409.032928,178.055954 411.683777,173.476974 415.835388,169.581360 
	C418.500153,167.080902 420.815765,164.212723 423.386047,161.606232 
	C426.712158,158.233292 430.493469,155.179428 435.235260,154.571701 
	C448.752869,152.839203 462.171509,149.718277 475.876465,150.182678 
	C488.085846,150.596375 499.398956,153.913834 508.955902,162.206635 
	C514.606018,167.109360 521.964050,167.938660 529.054565,168.918198 
	C537.949219,170.146957 546.905212,170.932465 555.799011,172.166946 
	C562.742981,173.130798 569.490295,174.877167 575.905823,177.904465 
	C582.701355,181.111038 589.897278,183.320984 597.156921,185.196396 
	C620.982056,191.351257 643.334961,201.218826 665.492615,211.687042 
	C674.118225,215.762161 682.272339,220.516846 690.186462,225.780640 
	C695.518982,229.327362 701.395264,232.058044 707.701599,232.772217 
	C725.103027,234.742889 734.381409,246.262375 741.578430,260.474640 
	C746.847595,270.880157 750.697266,281.890961 754.946960,292.717529 
	C758.080933,300.701477 757.809143,309.406342 759.060425,317.789276 
	C761.428467,333.653625 758.500549,348.960205 754.273010,364.147461 
	C753.112793,368.315521 751.970337,372.509888 751.197937,376.760925 
	C747.435120,397.470520 734.233582,410.205017 715.694824,417.873505 
	C702.608276,423.286621 688.860229,423.806244 675.041931,420.346313 
	C664.697205,417.756073 655.469421,421.385101 647.006409,426.497192 
	C638.308350,431.751282 628.494690,433.875031 619.379028,437.878632 
	C616.010315,439.358215 612.198608,439.190338 608.049561,439.190979 
M439.409882,306.945831 
	C448.166534,291.334442 457.227509,275.846527 463.559631,259.051056 
	C466.333435,251.693710 467.346832,243.721603 463.496155,236.349457 
	C455.712982,221.448563 442.990051,215.120636 426.354462,215.252670 
	C406.695862,215.408707 382.116058,235.647369 394.699066,262.758209 
	C403.164459,280.997375 412.671753,298.653717 423.051270,315.855469 
	C425.843109,320.482330 430.178131,320.789612 433.480316,316.434814 
	C435.578339,313.667999 437.206360,310.544830 439.409882,306.945831 
M620.067200,346.630493 
	C624.772156,337.330048 629.937622,328.222321 633.385681,318.359283 
	C636.771057,308.675598 636.912903,299.369598 630.137024,290.542755 
	C618.197205,274.988800 597.980469,269.060547 579.660339,279.394073 
	C561.396057,289.696075 557.297729,304.603119 564.581665,321.368958 
	C572.520508,339.641968 582.110352,357.161530 592.269104,374.331573 
	C595.576416,379.921448 600.183105,380.261658 603.914490,374.949585 
	C610.041443,366.227203 614.658936,356.620636 620.067200,346.630493 
M592.028015,396.483398 
	C596.101990,392.621307 600.123535,391.735626 604.464539,396.257477 
	C605.804016,397.652832 607.796082,398.423950 609.495117,399.471527 
	C612.815552,401.518982 616.031677,401.250824 618.390259,398.194855 
	C621.147949,394.621796 617.579224,392.811371 615.591309,390.876343 
	C613.618164,388.955658 610.640442,388.174286 609.135071,385.550385 
	C610.335999,382.945984 613.082642,382.512421 615.039124,381.090485 
	C616.263611,380.200500 617.475403,379.449951 618.262146,378.089661 
	C619.665161,375.663879 619.342773,373.573029 617.070312,371.984924 
	C614.813538,370.407867 612.980652,371.286926 611.557190,373.362061 
	C610.428223,375.008026 609.380066,376.710632 608.222046,378.335327 
	C604.761780,383.189911 599.149353,384.360413 593.713867,382.203888 
	C589.342651,380.469635 587.771179,376.618103 585.401611,373.288605 
	C584.218445,371.626221 582.758728,370.726898 580.703308,371.601379 
	C578.825745,372.400177 577.850342,373.859375 577.942078,375.916046 
	C577.999512,377.202759 578.974121,378.425690 577.888184,380.367950 
	C574.764648,380.367950 571.295166,380.395630 567.826355,380.360046 
	C564.437561,380.325287 560.898682,380.775879 560.824097,384.908386 
	C560.755249,388.722198 564.261841,390.237701 567.439453,390.455048 
	C574.101685,390.910675 581.716309,392.796478 583.383423,382.937775 
	C585.740723,383.272705 587.025330,384.057770 587.585144,386.066162 
	C585.528137,388.758087 582.439758,390.189728 579.870605,392.241943 
	C577.968933,393.760864 577.138184,395.532135 578.397766,397.892639 
	C579.567261,400.084412 581.340149,400.990692 583.770691,400.502594 
	C586.612061,399.931976 588.986267,398.361847 592.028015,396.483398 
M507.145508,358.030701 
	C509.936829,357.153015 512.125183,355.442108 511.535797,352.354675 
	C510.913177,349.093109 508.406464,347.445526 505.008453,347.419617 
	C502.031067,347.396912 499.053436,347.388397 496.075928,347.390747 
	C492.306335,347.393738 489.961426,349.597992 489.709381,353.008179 
	C489.450134,356.516296 492.076691,358.381195 495.457886,358.486298 
	C499.081268,358.598877 502.717224,358.305969 507.145508,358.030701 
M489.002747,386.684326 
	C490.591003,382.178925 487.580048,380.878357 484.226624,380.505249 
	C480.608154,380.102661 476.913849,380.374847 473.252594,380.365692 
	C470.411102,380.358582 467.747223,380.755798 467.431152,384.328552 
	C467.124451,387.794495 469.196289,389.747803 472.305389,390.162231 
	C475.911957,390.642914 479.602051,390.460510 483.246674,390.704010 
	C485.927979,390.883118 487.748169,389.890442 489.002747,386.684326 
M455.034973,362.609863 
	C452.364349,361.976562 450.514984,363.262543 449.087494,365.292389 
	C445.969116,369.726685 448.830750,379.617188 453.819733,381.804016 
	C456.704712,383.068634 461.828461,381.114349 461.307312,378.557251 
	C460.207764,373.162048 461.044006,366.839111 455.034973,362.609863 
M472.388275,347.340607 
	C468.788086,347.846924 465.122955,348.281982 461.897705,350.030762 
	C459.860931,351.135101 457.873260,352.787567 459.013336,355.599884 
	C460.036682,358.124146 462.106262,359.809967 464.846527,359.252533 
	C467.817963,358.648071 470.777313,358.786377 473.724976,358.482208 
	C477.163879,358.127289 480.771301,356.795441 480.899475,352.879822 
	C481.010803,349.478119 477.564392,348.359039 474.679993,347.440552 
	C474.221222,347.294495 473.691528,347.371338 472.388275,347.340607 
M540.388733,380.360474 
	C538.569458,380.377655 536.744751,380.312531 534.932129,380.431335 
	C532.221008,380.608978 529.851562,381.729095 529.642090,384.652618 
	C529.449768,387.336334 531.139038,389.799408 533.697754,390.246857 
	C538.747131,391.129883 543.943726,391.172180 548.885864,389.415863 
	C551.150391,388.611084 552.204468,386.648560 551.664795,384.224274 
	C551.157227,381.944550 549.905396,380.352905 547.220459,380.441010 
	C545.239319,380.506042 543.252380,380.392792 540.388733,380.360474 
M508.685303,390.677521 
	C511.155731,390.546722 513.711731,391.184174 516.064514,389.982178 
	C518.457520,388.759613 521.191467,387.571289 520.422974,384.165253 
	C519.765137,381.249542 517.242798,380.496155 514.620178,380.407562 
	C511.291779,380.295166 507.949860,380.248535 504.626709,380.421906 
	C501.960297,380.561035 499.124786,380.887970 498.439331,384.246948 
	C497.706757,387.837006 500.478088,388.664062 502.960175,389.748901 
	C504.536011,390.437622 506.140472,390.677734 508.685303,390.677521 
M476.212982,315.602875 
	C481.166626,318.188843 486.503601,317.914551 491.734741,317.238770 
	C494.484741,316.883484 496.674347,314.873291 496.476318,311.733887 
	C496.328613,309.392609 494.729065,307.634796 492.295776,307.526306 
	C487.993225,307.334503 483.638519,307.140137 479.374451,307.593719 
	C475.239868,308.033569 473.970734,311.072754 476.212982,315.602875 
M545.781311,322.861176 
	C544.795471,321.547729 543.952698,320.087799 542.791687,318.953705 
	C540.835388,317.042816 538.610107,315.476013 535.791626,317.446167 
	C533.044861,319.366150 532.756714,321.892151 534.028748,324.861145 
	C534.999878,327.127869 535.653015,329.530853 536.623718,331.797852 
	C537.988464,334.985168 540.519531,336.244781 543.860718,335.380127 
	C547.299927,334.490051 547.825439,331.683868 547.528931,328.727997 
	C547.350769,326.952454 546.659363,325.228363 545.781311,322.861176 
M524.023682,308.089233 
	C519.779968,306.764618 515.424011,307.422180 511.126678,307.504059 
	C508.148926,307.560760 505.915710,309.448700 505.681458,312.383575 
	C505.441010,315.395538 508.093964,316.803497 510.553741,317.157288 
	C514.154114,317.675110 517.853821,317.566528 521.512207,317.595032 
	C523.984863,317.614288 526.013550,316.795288 527.126038,314.269226 
	C528.396851,311.383850 526.564026,309.953644 524.023682,308.089233 
M540.796753,346.630981 
	C539.990967,343.995422 538.796082,340.978943 535.583801,341.993103 
	C531.087524,343.412689 526.599060,345.262054 522.826599,348.272217 
	C521.435791,349.381958 519.939148,350.848267 520.801941,352.934906 
	C521.755920,355.241974 523.589111,356.565094 526.172791,356.711090 
	C531.124756,356.990936 538.623596,352.203125 540.796753,346.630981 
M459.056244,317.599213 
	C462.388580,317.874390 464.582886,316.089722 465.323181,313.161591 
	C465.986267,310.538666 463.953613,308.633057 461.704407,307.948395 
	C457.883667,306.785339 453.772491,306.858734 449.967682,307.799500 
	C447.011383,308.530426 445.629913,311.593750 445.740509,314.434113 
	C445.851746,317.290802 448.760101,316.976501 450.809723,317.193451 
	C453.265106,317.453339 455.744629,317.484528 459.056244,317.599213 
z"/>
<path fill="#000000" opacity="1.000000" stroke="none" 
	d="
M421.446411,262.077454 
	C411.609894,257.097778 408.524719,250.089325 412.165649,241.738937 
	C415.209747,234.757248 424.307465,230.921112 433.016937,232.946747 
	C441.487244,234.916763 446.772736,241.372604 446.324860,249.201385 
	C445.789795,258.555328 434.627258,265.480042 424.213470,262.909576 
	C423.409393,262.711090 422.623291,262.439636 421.446411,262.077454 
z"/>
<path fill="#000000" opacity="1.000000" stroke="none" 
	d="
M596.334839,291.722778 
	C604.506775,291.580261 611.652161,293.244995 614.963135,301.042816 
	C619.856018,312.565979 610.097107,324.077515 597.017090,322.678833 
	C584.020813,321.289154 577.231628,310.693634 582.465759,300.015991 
	C585.213013,294.411713 590.525879,293.055054 596.334839,291.722778 
z"/>
</svg>